<svg width="21" height="21" viewBox="0 0 21 21" fill="none" xmlns="http://www.w3.org/2000/svg">
<circle r="9.94737" transform="matrix(-1 0 0 1 10.5 10.5)" stroke="#FF5555" stroke-width="1.10526"/>
<path d="M6.93447 12.6026L9.03703 10.501L6.93565 8.39952C6.53145 7.99647 6.53145 7.34048 6.93565 6.93743C7.33986 6.53083 7.99343 6.53201 8.39763 6.93624L10.5002 9.03778L12.6027 6.93388C13.0069 6.52965 13.6617 6.53201 14.0659 6.93388C14.4689 7.33811 14.4689 7.9941 14.0659 8.39715L11.9622 10.501L14.0612 12.599C14.4654 13.0033 14.4654 13.6593 14.0612 14.0611C13.8591 14.2644 13.5955 14.3649 13.3308 14.3649C13.0649 14.3649 12.8013 14.2644 12.5992 14.0623L10.5002 11.9631L8.39645 14.0659C8.19435 14.268 7.93079 14.3684 7.66605 14.3684C7.40131 14.3684 7.13657 14.2668 6.93447 14.0659C6.53027 13.6616 6.53027 13.0068 6.93447 12.6026Z" fill="#FF5555"/>
</svg>
