<?xml version="1.0" encoding="utf-8"?>
<!-- Generator: Adobe Illustrator 23.0.1, SVG Export Plug-In . SVG Version: 6.00 Build 0)  -->
<svg version="1.1" id="Laag_1" xmlns="http://www.w3.org/2000/svg" xmlns:xlink="http://www.w3.org/1999/xlink" x="0px" y="0px"
	 viewBox="0 0 1000 1000" style="enable-background:new 0 0 1000 1000;" xml:space="preserve">
<style type="text/css">
	.st0{fill:#FFFFFF;}
	.st1{fill:#FF0A19;}
	.st2{fill:none;}
</style>
<title>mintable_logomark_square_fc_rgb</title>
<g>
	<path d="M500,5L500,5c273.4,0,495,221.6,495,495l0,0c0,273.4-221.6,495-495,495l0,0C226.6,995,5,773.4,5,500l0,0
		C5,226.6,226.6,5,500,5z"/>
	<g>
		<polygon class="st0" points="197.8,230.8 197.8,769.2 364.8,769.2 364.8,574 452.8,691.7 548.4,691.7 635.5,574 802.2,574 
			802.2,230.8 681.5,230.8 500.6,494.8 318,230.9 		"/>
		<rect x="658.8" y="625.8" class="st1" width="143.4" height="143.4"/>
	</g>
	<rect class="st2" width="1000" height="1000"/>
</g>
</svg>
