<svg width="13" height="13" viewBox="0 0 13 13" fill="none" xmlns="http://www.w3.org/2000/svg">
<path fill-rule="evenodd" clip-rule="evenodd" d="M3.33869 11.1886C3.58538 11.1886 3.78588 11.3891 3.78588 11.6358C3.78588 11.8825 3.58538 12.0824 3.33869 12.0824C3.09201 12.0824 2.89209 11.8825 2.89209 11.6358C2.89209 11.3891 3.09201 11.1886 3.33869 11.1886Z" stroke="#3F3F3F" stroke-width="1.16912" stroke-linecap="round" stroke-linejoin="round"/>
<path fill-rule="evenodd" clip-rule="evenodd" d="M9.91667 11.1886C10.1634 11.1886 10.3639 11.3891 10.3639 11.6358C10.3639 11.8825 10.1634 12.0824 9.91667 12.0824C9.66999 12.0824 9.46948 11.8825 9.46948 11.6358C9.46948 11.3891 9.66999 11.1886 9.91667 11.1886Z" stroke="#3F3F3F" stroke-width="1.16912" stroke-linecap="round" stroke-linejoin="round"/>
<path d="M0.607422 1.50232L1.8233 1.71276L2.38623 8.4194C2.43183 8.96597 2.88837 9.38568 3.43669 9.38568H9.81539C10.3392 9.38568 10.7834 9.00104 10.8588 8.48195L11.4136 4.64842C11.482 4.17551 11.1155 3.75229 10.6379 3.75229H2.01855" stroke="#3F3F3F" stroke-width="1.16912" stroke-linecap="round" stroke-linejoin="round"/>
<path d="M7.25757 5.91284H8.87855" stroke="#3F3F3F" stroke-width="1.16912" stroke-linecap="round" stroke-linejoin="round"/>
</svg>
