<svg width="18" height="14" viewBox="0 0 18 14" fill="none" xmlns="http://www.w3.org/2000/svg">
<path d="M15.1057 1.24304C14.0053 0.734422 12.8286 0.364776 11.5985 0.154297C11.4474 0.424124 11.2709 0.787047 11.1492 1.07575C9.84152 0.881479 8.54586 0.881479 7.26223 1.07575C7.14056 0.787047 6.96005 0.424124 6.80763 0.154297C5.57615 0.364776 4.39815 0.73578 3.29771 1.24574C1.07812 4.55915 0.47642 7.79026 0.777269 10.9755C2.24942 12.0615 3.67612 12.7213 5.07874 13.153C5.42505 12.6821 5.73391 12.1816 5.99999 11.6541C5.49324 11.4639 5.00787 11.2291 4.54926 10.9566C4.67092 10.8676 4.78993 10.7745 4.90491 10.6787C7.70213 11.9711 10.7414 11.9711 13.5052 10.6787C13.6215 10.7745 13.7405 10.8676 13.8608 10.9566C13.4009 11.2305 12.9142 11.4652 12.4074 11.6555C12.6735 12.1816 12.981 12.6835 13.3287 13.1543C14.7327 12.7226 16.1607 12.0629 17.6328 10.9755C17.9858 7.283 17.0298 4.08156 15.1057 1.24304ZM6.38108 9.0166C5.54138 9.0166 4.85276 8.2422 4.85276 7.29918C4.85276 6.35615 5.52668 5.58042 6.38108 5.58042C7.2355 5.58042 7.9241 6.3548 7.90939 7.29918C7.91072 8.2422 7.2355 9.0166 6.38108 9.0166ZM12.029 9.0166C11.1893 9.0166 10.5007 8.2422 10.5007 7.29918C10.5007 6.35615 11.1746 5.58042 12.029 5.58042C12.8834 5.58042 13.572 6.3548 13.5573 7.29918C13.5573 8.2422 12.8834 9.0166 12.029 9.0166Z" fill="#4B4B4B"/>
</svg>
