<svg width="413" height="337" viewBox="0 0 413 337" fill="none" xmlns="http://www.w3.org/2000/svg">
<path d="M329.598 314.336C329.971 314.679 331.639 313.721 330.94 313.053C330.567 312.712 328.917 313.67 329.598 314.336Z" fill="#9E1522"/>
<path d="M118.795 264.612C117.883 264.537 116.968 264.537 116.056 264.612C116.056 265.501 116.158 266.323 116.192 267.213C117.06 266.341 117.927 265.501 118.795 264.612Z" fill="#9E1522"/>
<path d="M377.847 289.346C377.643 289.209 377.438 289.071 377.25 288.918C377.369 289.311 377.506 289.705 377.659 290.082C377.742 289.842 377.804 289.596 377.847 289.346Z" fill="#9E1522"/>
<path d="M278.882 117.849C280.141 118.038 279.919 118.808 279.222 119.732C289.245 117.783 299.399 116.581 309.597 116.138C309.597 111.602 310.244 106.415 306.909 105.046C307.897 102.769 309.341 104.858 310.923 105.046C311.595 108.825 312.667 112.52 314.122 116.069H340.618C347.607 116.069 355.414 113.382 364.036 107.939C372.659 102.495 376.962 99.2774 376.962 98.1818C376.962 97.4287 372.744 92.2936 364.361 82.7765C364.036 83.2045 363.255 83.5467 363.017 83.3072C362.777 83.0675 363.17 82.2801 363.73 82.0575C360.414 78.3089 356.485 73.944 351.928 68.8945C335.205 50.4765 326.854 43.43 326.876 47.7549C326.876 51.4522 319.598 54.6017 309.631 57.3233V59.0351H306.962V57.9908C295.374 60.6588 283.648 62.6874 271.841 64.0675C272.334 66.7417 272.499 69.4664 272.334 72.181C280.975 69.8986 287.776 68.1242 292.742 66.8576C292.972 66.6979 293.248 66.6251 293.526 66.6521C297.471 65.6764 300.158 65.0773 301.536 64.8378C301.774 64.3242 302.709 63.8964 302.981 64.1531C303.253 64.4098 302.862 65.1459 302.318 65.3855C300.628 67.6107 292.936 76.0893 279.238 90.8215C276.706 93.5431 274.359 95.9566 272.147 98.3188C272.094 101.039 272.592 103.741 273.609 106.261C273.984 108.332 272.352 108.469 272.284 110.095C276.009 111.995 269.459 115.795 274.937 115.231C272.505 117.045 272.659 118.654 273.084 120.828L276.382 120.212C276.619 119.669 276.964 119.18 277.393 118.775C277.822 118.369 278.33 118.054 278.882 117.849ZM365.618 96.1449H368.289V98.7125H365.618V96.1449ZM364.292 89.7774C364.971 90.4278 363.323 91.4035 362.948 91.0441C362.286 90.3251 363.934 89.3494 364.308 89.709L364.292 89.7774ZM344.275 64.2558H346.944V66.8061H344.275V64.2558ZM340.262 108.914C340.959 109.582 339.291 110.626 338.934 110.198C338.253 109.462 339.921 108.503 340.278 108.846L340.262 108.914ZM338.918 57.8026C339.597 58.4531 337.947 59.5144 337.574 59.0692C336.911 58.4188 338.577 57.4432 338.918 57.8026ZM336.246 84.5908C336.927 85.2586 335.277 86.3027 334.903 85.8746C334.258 85.2071 335.906 84.2486 336.281 84.5908H336.246ZM328.236 93.5431C328.917 94.1935 327.267 95.1692 326.911 94.8098C326.248 94.1594 327.896 93.1837 328.271 93.5431H328.236ZM321.57 62.9036C323.901 63.2117 324.614 65.0945 324.223 68.0387C321.91 67.6962 321.229 65.8135 321.604 62.9036H321.57ZM321.57 83.3241C320.651 78.189 322.845 76.0494 322.895 71.8387C329.598 74.817 321.348 84.5053 322.895 85.8746C322.591 87.7233 318.917 86.3198 318.882 88.4252C317.166 89.0584 318.338 82.0918 321.604 83.3241H321.57ZM317.557 90.9757C317.301 92.4306 316.213 91.6945 316.229 90.9757C316.519 89.5377 317.591 90.2738 317.591 90.9757H317.557ZM312.25 97.3088C311.928 98.918 309.597 98.6098 309.581 97.3088C310.175 95.5972 310.753 97.4971 312.25 97.3088ZM300.243 98.5927H304.256V102.444H300.243V98.5927ZM298.917 97.3088C299.596 97.9766 297.946 98.9351 297.574 98.5927C296.876 97.9766 298.524 97.0178 298.917 97.3088ZM289.563 103.694C289.308 105.131 288.22 104.395 288.236 103.694C288.492 102.29 289.598 103.026 289.598 103.745L289.563 103.694ZM286.892 104.977C287.589 105.628 285.941 106.689 285.548 106.244C284.869 105.645 286.519 104.669 286.892 105.029V104.977Z" fill="#9E1522"/>
<path d="M384.326 310.502C384.7 310.861 386.35 309.887 385.653 309.237C385.295 308.876 383.629 309.852 384.326 310.502Z" fill="#9E1522"/>
<path d="M332.284 329.64C332.284 330.359 333.355 331.095 333.611 329.64C333.611 328.938 332.523 328.202 332.284 329.64Z" fill="#9E1522"/>
<path d="M276.212 209.666C281.45 210.863 277.181 202.957 280.209 202.014V195.013L279.988 194.911C278.61 194.312 277.284 193.798 275.991 193.353C278.066 197.787 275.753 204.513 276.212 209.666Z" fill="#9E1522"/>
<path d="M292.998 208.777V203.041C292.998 202.236 291.943 201.176 289.851 199.858C289.767 200.594 289.682 201.313 289.648 202.014C287.948 201.723 287.454 200.303 287.607 198.591C286.57 198.026 285.361 197.427 284.019 196.777C282.691 201.792 280.957 207.235 279.545 212.798C284.767 211.309 292.827 213.38 292.998 208.777ZM285.635 209.666C285.635 208.433 287.335 208.69 288.32 208.399C288.185 209.632 286.604 209.392 285.548 209.666H285.635Z" fill="#9E1522"/>
<path d="M190.803 52.6846C190.666 50.6305 188.609 50.4081 187.061 49.7063C187.061 50.4253 187.061 51.1612 187.061 51.8972C188.166 52.6231 189.501 52.9042 190.803 52.6846Z" fill="#9E1522"/>
<path d="M24.7623 332.292C27.1901 332.811 29.6985 332.811 32.1264 332.292C30.8169 329.828 33.0618 325.241 33.2999 323.237C32.0754 321.304 30.8678 323.016 29.3031 324.521C25.6296 327.945 27.4153 329.572 22.6193 329.657C22.7686 329.917 22.8472 330.212 22.8472 330.512C22.8472 330.813 22.7686 331.108 22.6193 331.368C23.3107 331.727 24.0269 332.038 24.7623 332.292Z" fill="#9E1522"/>
<path d="M269.58 145.477L272.181 144.621C272.099 143.338 272.099 142.052 272.181 140.769C271.357 141.234 270.678 141.921 270.217 142.752C269.758 143.583 269.538 144.526 269.58 145.477Z" fill="#9E1522"/>
<path d="M272.215 42.5342C271.841 42.1918 270.175 43.1503 270.89 43.8181C271.246 44.1091 272.896 43.1503 272.215 42.5342Z" fill="#9E1522"/>
<path d="M38.657 330.992C38.657 330.547 38.657 330.084 38.657 329.64C39.3097 329.739 39.9097 330.058 40.3578 330.547C42.0585 330.103 43.7593 329.622 45.698 329.041C56.4577 325.788 67.229 317.932 78.0115 305.469C81.2937 301.653 84.8143 297.854 88.3518 294.036C87.3201 292.974 86.7143 291.566 86.651 290.082C88.3615 289.909 90.089 290.042 91.7531 290.476L94.3552 287.806C94.0411 287.62 93.6821 287.526 93.3179 287.532C92.3994 281.609 85.2055 281.659 86.6341 273.495C88.3347 274.796 91.5661 274.746 93.3179 276.045C90.2736 280.12 92.8587 283.766 95.7328 286.42L98.6921 283.475C98.233 283.56 97.7396 283.578 97.3145 283.697C97.3145 282.567 98.675 282.67 99.6954 282.483C104.355 277.918 109.225 273.353 114.305 268.789C113.916 266.508 114.038 264.168 114.662 261.942C114.356 258.398 107.145 261.48 107.995 256.806C111.89 257.952 112.604 258.517 114.662 255.539C115.784 258.673 118.828 259.956 121.226 261.839C124.345 258.316 127.188 254.556 129.73 250.593C129.288 247.17 129.05 243.334 126.754 240.22C128.799 232.619 128.327 224.555 125.41 217.248C125.274 213.295 129.611 213.604 128.08 208.314C133.54 207.919 128.795 210.984 129.424 213.448C129.764 217.369 132.315 219.199 133.421 222.402C134.169 223.958 138.523 221.441 137.417 227.536C135.155 227.998 134.917 226.543 134.747 224.969C132.009 225.653 134.441 231.01 130.75 227.536C131.023 233.733 131.975 240.099 132.315 246.365C139.527 233.434 145.179 219.684 149.152 205.405C152.128 195.322 154.798 187.294 157.18 181.2C156.108 180.977 154.815 180.43 153.438 180.258C154.594 178.393 155.445 176.219 158.778 176.424C158.736 176.742 158.736 177.065 158.778 177.383C162.576 168.653 165.57 165.532 167.758 168.02C171.522 172.345 176.624 173.697 183.064 172.076C183.776 171.895 184.507 171.803 185.241 171.803C185.326 170.433 186.092 169.441 188.132 170.091C187.979 170.399 187.469 171.187 187.061 172.042C190.394 172.795 193.297 175.722 195.768 180.823L196.143 180.31C198.847 178.427 197.095 180.413 195.99 181.286C196.935 183.322 197.741 185.421 198.405 187.568C199.72 191.976 201.552 196.211 203.865 200.183C204.884 199.721 205.344 199.704 204.187 200.696C205.156 202.275 206.297 203.738 207.588 205.061C207.834 203.841 208.511 202.753 209.494 201.998C210.628 203.927 211.454 206.024 211.942 208.212C212.272 208.397 212.612 208.563 212.963 208.708C219.204 210.633 225.687 211.654 232.215 211.737C232.197 211.468 232.197 211.2 232.215 210.932C232.725 211.166 233.21 211.452 233.659 211.787C236.28 211.908 239.069 211.959 242.062 211.959C255.514 211.959 262.249 212.524 262.249 213.585C262.249 214.647 254.136 217.831 237.981 223.086C238.456 227.81 238.593 232.843 240.209 236.455C236.806 241.213 237.402 231.61 237.537 228.803C237.537 226.611 236.347 225.618 236.059 223.667C229.815 225.633 223.713 228.022 217.792 230.823C218.33 232.677 218.676 234.58 218.83 236.505C215.904 232.209 216.329 235.666 217.298 239.347C217.726 239.347 218.183 239.466 218.66 239.5C218.695 239.351 218.751 239.205 218.83 239.072C219.885 236.352 219.799 237.944 219.986 239.603C220.582 239.603 221.177 239.603 221.823 239.603H244.444C253.048 239.603 254.664 245.566 249.289 257.49C247.826 260.727 246.585 263.738 245.513 266.581V269.644C247.395 274.59 248.741 279.726 249.529 284.965C256.654 298.984 262.18 314.542 269.546 328.355C270.753 330.53 272.453 332.242 273.61 334.449C274.375 334.603 275.141 334.74 275.922 334.861C276.944 327.158 275.225 320.225 276.212 310.486C276.706 308.313 275.175 308.072 273.541 307.935C274.018 306.224 275.906 305.931 276.212 304.101C275.838 284.091 275.378 270.722 276.212 251.773C279.716 255.676 276.059 260.624 280.209 262.045C279.579 270.774 279.238 279.829 277.556 287.566C281.179 285.855 281.585 281.215 281.553 276.08C282.963 269.354 287.148 265.261 286.892 256.925C286.195 255.042 284.92 253.709 284.223 251.791C280.957 249.104 288.22 253.503 288.236 255.626C288.87 255.416 289.557 255.416 290.192 255.626C290.881 251.939 290.847 248.153 290.089 244.482C288.814 238.713 281.126 231.285 277.216 224.729C276.382 233.083 277.437 241.179 282.895 247.957C279.613 251.004 278.95 240.733 273.541 241.589C274.359 235.65 269.187 228.803 265.549 231.319C264.393 229.009 262.146 227.792 261.536 224.934C265.055 225.259 265.924 227.57 265.549 222.402C266.84 222.402 266.568 223.942 266.875 224.934C268.984 227.691 271.653 220.245 274.869 219.799C274.869 219.062 274.953 218.378 274.971 217.694C274.971 217.573 274.971 217.472 274.971 217.369C275.243 208.708 273.1 202.785 274.851 195.613C274.393 193.61 272.522 196.725 272.199 194.329C272.614 193.746 272.957 193.114 273.219 192.446C267.624 190.888 262.861 190.871 258.967 192.446C253.582 194.637 249.545 193.827 246.857 190.015C244.154 186.232 241.194 184.315 237.963 184.315C234.731 184.315 233.115 183.785 233.115 182.604V175.021C232.759 175.26 232.318 175.38 232.164 175.226C231.602 174.696 232.537 173.994 233.115 173.891V172.967C232.93 168.5 233.76 164.05 235.549 159.958C236.681 157.675 241.438 154.977 249.817 151.861C248.539 151.48 247.421 150.684 246.642 149.597C245.86 148.51 245.457 147.194 245.497 145.853C248.763 146.264 249.835 148.78 250.6 151.553C253.91 150.412 257.758 149.145 262.146 147.753C263.849 147.274 265.277 146.812 266.721 146.349C266.721 143.423 270.769 139.999 272.147 138.202C272.147 136.336 271.96 134.522 271.875 132.724C268.825 133.021 265.315 133.426 261.348 133.94C244.635 136.131 237.096 131.252 238.728 119.304C240.362 107.357 239.55 98.9579 236.296 94.1081C233.065 89.2297 230.089 86.7819 227.418 86.7819C224.749 86.7819 223.371 85.9774 223.371 84.3513C223.294 83.7096 223.407 83.0594 223.695 82.4812C223.981 81.9033 224.43 81.4226 224.986 81.0989C226.058 80.5684 228.218 80.5684 231.449 81.0989C233.549 81.2119 235.654 81.0394 237.709 80.5856C235.887 77.1621 234.459 73.4305 232.112 70.5549C230.952 71.4172 229.541 71.8686 228.099 71.8387C232.624 65.7108 238.881 76.854 242.776 79.49V79.627C249.16 78.2804 258.065 76.0609 269.494 72.9684H269.58C269.58 70.1955 269.58 67.3368 269.58 64.4098C262.249 65.2658 256.449 65.7792 254.07 65.8819C251.688 65.9846 248.66 65.4882 248.338 63.1774C248.292 62.305 248.511 61.4395 248.967 60.6955C251.841 55.1495 257.386 51.5206 263.218 49.3467C262.996 48.8047 262.892 48.2211 262.912 47.635C263.627 45.6837 264.308 47.635 264.256 48.9189C265.956 48.3197 267.759 47.8405 269.546 47.3955C269.546 46.2485 269.546 45.0161 269.546 43.7495C269.409 41.2847 264.324 45.9406 264.205 41.182C264.002 35.5333 267.981 41.7981 269.546 38.6315C269.699 36.3133 269.627 33.9853 269.324 31.6818L247.538 32.6063C244.575 32.7144 241.609 32.4906 238.694 31.9387C237.878 32.9485 235.428 35.0026 237.503 32.2638L238.15 31.836C232.878 30.7471 227.779 28.933 222.996 26.444C222.452 29.7629 221.499 33.0004 220.157 36.081C219.627 32.4135 219.702 28.6833 220.377 25.0405C214.681 21.8204 209.451 17.8292 204.834 13.1783C200.769 9.03598 198.779 4.14048 192.588 2.53148C188.302 1.40175 184.952 2.1549 183.115 4.24319C181.278 6.33148 180.938 9.85759 182.673 14.154C184.534 18.7444 185.814 23.5521 186.483 28.464C187.032 28.5288 187.551 28.7487 187.981 29.0984C188.41 29.4481 188.733 29.9133 188.911 30.44C189.089 30.9665 189.115 31.5331 188.986 32.0739C188.857 32.6149 188.579 33.1081 188.183 33.4964C187.713 33.2661 187.291 32.9465 186.942 32.5548C187.095 34.4721 187.18 36.372 187.214 38.3234C191.33 39.162 196.534 41.7468 198.864 39.881C204.647 43.8865 192.061 40.9423 192.18 43.7154C190.99 43.1503 189.799 42.5855 189.51 41.1477C188.557 41.4387 187.809 41.6441 187.214 41.7809C187.214 43.2702 187.214 44.7766 187.214 46.3171C188.438 46.3171 189.408 46.0261 189.561 44.9818C189.872 45.0182 190.158 45.1683 190.366 45.4034C190.574 45.6385 190.689 45.9424 190.689 46.2572C190.689 46.572 190.574 46.8759 190.366 47.111C190.158 47.3461 189.872 47.496 189.561 47.5323C192.962 48.3712 193.2 48.936 193.575 55.1836C191.874 53.6603 191.466 54.6874 189.561 55.1836C189.935 56.3476 194.527 59.4801 194.901 56.4675C196.602 58.8469 200.548 68.4495 193.575 67.9531C193.149 64.9748 190.956 62.681 193.575 60.3018C192.469 58.4703 189.476 58.4531 187.129 57.8026C187.129 58.4188 187.129 59.0008 187.129 59.5144C187.843 60.2503 189.425 60.1648 190.836 60.2503C190.411 61.9622 189.136 62.9207 188.472 64.5125C189.43 66.1676 190.722 67.6022 192.265 68.7234C192.555 68.9179 192.862 69.084 193.183 69.2198C197.86 69.3225 199.187 66.2243 202.843 65.3514C202.741 69.5451 201.671 69.1855 202.418 71.7532L204.375 72.2153C205.487 71.486 206.349 70.4276 206.84 69.1855C210.36 68.8089 207.894 74.1323 212.181 73.0027C211.263 74.0468 210.106 76.4261 212.181 76.8368C209.103 80.7054 201.109 79.8666 197.503 83.2216C196.058 82.9135 196.602 80.6883 194.833 80.6711C192.571 82.7593 193.132 87.5179 190.836 89.6063C186.738 88.3568 192.367 86.1828 192.163 84.4712C192.205 83.9691 192.144 83.4636 191.983 82.9865C191.822 82.5093 191.565 82.0708 191.228 81.6981L188.745 82.6054C176.281 87.085 163.431 90.3915 150.36 92.4819C151.142 94.3134 151.499 96.5388 152.06 98.5243C150.206 97.3431 149.492 95.1008 148.88 92.7045C147.877 92.8584 146.89 93.0297 145.87 93.1666C141.448 93.8172 137.536 94.2621 134.084 94.5188C134.327 95.4003 134.389 96.3225 134.267 97.2289C134.144 98.1354 133.839 99.0072 133.37 99.7909C132.154 98.341 131.417 96.5463 131.261 94.6558C124.458 94.9981 119.923 94.4847 117.655 93.1153C113.862 90.9585 110.393 91.78 107.162 95.5629C103.93 99.346 100.138 100.441 95.8519 98.8153C91.5661 97.1892 89.3891 96.9323 89.3891 97.9935C89.4254 98.4361 89.3716 98.8812 89.2314 99.302C89.091 99.7229 88.8669 100.111 88.5728 100.441C88.0286 100.989 90.9936 105.052 97.4676 112.629C103.942 120.206 107.173 140.53 107.162 173.6C107.201 183.717 106.209 193.812 104.202 203.726C105.183 204.287 105.958 205.15 106.411 206.189C106.865 207.229 106.973 208.389 106.719 209.495C102.281 208.742 106.515 206.07 103.981 204.771C99.8167 224.672 90.9299 243.266 78.0796 258.963C75.6419 261.964 73.2779 264.817 70.9875 267.521C71.3997 270.401 72.2007 273.212 73.3686 275.874C77.6883 271.939 80.1714 266.272 86.702 264.39C87.9946 258.38 93.1988 256.138 97.3826 252.903C101.286 246.557 106.252 240.941 112.06 236.3V232.484C117.587 230.532 119.441 225.072 125.41 223.548C123.897 230.601 114.543 230.155 116.073 240.134C114.526 240.358 113.692 239.861 113.403 238.868C108.981 242.719 104.168 246.194 102.723 252.903C89.8485 258.467 85.5966 272.264 73.3686 278.425C74.0658 287.138 67.7393 293.18 72.025 301.397C68.6235 302.783 69.882 293.489 68.0284 297.579C66.1064 296.261 67.093 290.732 68.0284 286.077C63.2152 285.324 64.0827 289.979 60.018 289.911C61.8716 287.001 64.6269 284.965 66.6848 282.259C63.6745 279.401 66.7698 275.858 68.0284 273.325C68.0284 272.605 67.9262 271.886 67.8752 271.168C55.4035 285.717 45.3466 295.599 37.7047 300.814C37.9817 301.123 38.1928 301.486 38.3248 301.879C38.4567 302.273 38.5067 302.691 38.4717 303.104C38.4366 303.518 38.3171 303.921 38.1209 304.287C37.9245 304.652 37.6555 304.975 37.3306 305.231C36.038 304.957 36.0211 303.518 36.038 301.91C35.4938 302.253 34.9666 302.578 34.4563 302.852C24.785 308.26 19.9436 313.14 19.9323 317.486V328.048C19.9386 328.638 20.149 329.207 20.5275 329.657C22.7577 327.495 24.4027 324.797 25.3064 321.817C31.0719 322.21 31.531 317.555 34.6604 315.432C36.5312 315.894 34.7794 317.692 33.3168 317.983C35.8168 321.407 35.4598 326.765 33.81 331.864C35.2726 331.814 36.8712 331.436 38.657 330.992ZM254.867 250.542V247.939C255.992 248.179 256.11 247.461 256.195 246.674C258.78 246.228 258.151 252.51 254.867 250.524V250.542ZM268.202 297.767C265.071 301.859 262.811 293.267 268.202 297.767V297.767ZM266.875 311.786C266.178 311.136 267.844 310.074 268.202 310.52C268.899 311.17 267.233 312.129 266.875 311.769V311.786ZM273.541 297.767C273.287 299.206 272.215 298.469 272.215 297.767C272.471 296.296 273.559 297.032 273.541 297.751V297.767ZM272.215 304.135C272.318 303.948 272.657 300.523 273.541 301.585C274.425 302.646 270.312 307.85 272.215 304.117V304.135ZM269.546 300.317C268.849 299.649 270.497 298.606 270.89 299.034C271.569 299.684 269.919 300.642 269.546 300.301V300.317ZM270.89 281.147C270.634 282.602 269.546 281.865 269.546 281.147C269.8 279.708 270.89 280.463 270.89 281.147ZM269.546 253.075C269.546 254.308 267.844 254.068 266.875 254.358C266.909 253.075 268.508 253.365 269.546 253.075ZM265.549 235.204C266.228 235.856 264.58 236.83 264.205 236.471C263.508 235.821 265.158 234.845 265.549 235.204ZM262.861 295.115C262.521 298.11 257.011 295.85 256.195 295.115C257.283 291.45 259.561 296.861 262.861 295.184V295.115ZM270.89 199.464C273.847 205.318 267.233 212.97 268.202 221.151C262.811 214.528 270.65 208.006 270.89 199.464ZM245.513 203.298H248.185V205.848H245.513V203.298ZM252.182 142.036C252.895 142.704 251.229 143.748 250.854 143.303C250.173 142.652 251.823 141.677 252.182 142.036ZM244.188 144.587C244.188 145.819 242.487 145.579 241.518 145.853C241.551 144.621 243.15 144.877 244.188 144.587ZM240.175 145.853C240.872 146.521 239.206 147.565 238.847 147.137C238.15 146.486 239.816 145.511 240.175 145.853ZM261.536 32.2638C262.215 32.9144 260.565 33.9756 260.208 33.5305C259.511 32.8801 261.161 31.9216 261.536 32.2638ZM242.828 69.271C242.147 68.6035 243.797 67.645 244.172 67.9872C244.869 68.6719 243.219 69.6307 242.844 69.2882L242.828 69.271ZM244.188 37.3991C244.188 38.6315 242.487 38.3918 241.518 38.6658C241.551 37.3991 243.15 37.6558 244.188 37.3991ZM241.518 64.2045C241.263 65.6423 240.175 64.9062 240.175 64.2045C240.428 62.7324 241.518 63.4684 241.518 64.1874V64.2045ZM189.459 5.49274C188.762 4.82517 190.428 3.78102 190.802 4.20895C191.483 4.87651 189.833 5.81797 189.459 5.47562V5.49274ZM133.336 212.249C132.638 211.584 134.305 210.625 134.662 210.966C135.427 211.618 133.778 212.576 133.403 212.233L133.336 212.249ZM141.346 194.38C140.648 193.713 142.315 192.754 142.672 193.096C143.438 193.747 141.788 194.705 141.414 194.363L141.346 194.38ZM146.686 198.197C145.989 197.547 147.638 196.486 148.013 196.931C148.778 197.581 147.128 198.54 146.737 198.18L146.686 198.197ZM154.696 184.178C155.377 184.829 153.727 185.787 153.353 185.445C152.741 184.777 154.39 183.802 154.764 184.161L154.696 184.178ZM154.696 161.19C153.999 160.54 155.649 159.564 156.023 159.923C156.788 160.642 155.122 161.532 154.764 161.173L154.696 161.19ZM161.363 154.805C162.194 155.012 162.922 155.514 163.413 156.219C163.903 156.924 164.124 157.784 164.033 158.64C161.244 159.222 161.567 156.808 161.431 154.788L161.363 154.805ZM165.377 156.089C164.68 155.422 166.329 154.377 166.703 154.805C167.469 155.507 165.802 156.432 165.445 156.072L165.377 156.089ZM174.714 170.125C174.016 169.475 175.683 168.499 176.04 168.859C176.806 169.492 175.156 170.467 174.782 170.108L174.714 170.125ZM177.384 152.272H174.714V149.704H177.384V152.272ZM193.404 148.438C197.707 145.819 195.275 155.678 197.401 150.988C200.888 154.086 192.265 153.47 193.473 148.421L193.404 148.438ZM194.731 145.87C195.428 146.538 193.762 147.582 193.404 147.154C192.775 146.486 194.357 145.511 194.799 145.853L194.731 145.87ZM205.479 193.165C203.15 185.188 202.69 175.431 198.813 168.927C197.469 167.215 196.602 169.475 194.799 166.359C194.92 162.901 195.37 159.462 196.143 156.089C198.864 158.52 198.813 161.635 197.469 165.024C197.724 166.479 198.813 165.743 198.813 165.024C203.744 173.925 206.041 185.342 208.15 196.931C206.619 195.407 204.747 196.434 206.806 196.931C204.562 201.398 202.86 193.935 205.479 193.165ZM208.15 199.55C208.404 198.112 209.476 198.848 209.476 199.55C209.222 200.919 208.132 200.183 208.15 199.464V199.55ZM212.147 151.057C211.466 150.389 213.116 149.431 213.491 149.773C214.17 150.372 212.52 151.313 212.147 150.971V151.057ZM216.16 193.165C215.463 192.514 217.129 191.539 217.486 191.898C218.167 192.463 216.466 193.439 216.16 193.165ZM217.486 163.826C216.807 163.158 218.457 162.114 218.83 162.542C219.511 163.124 217.861 164.066 217.486 163.74V163.826ZM218.83 189.348C218.576 190.786 217.486 190.049 217.486 189.348C217.742 187.807 218.83 188.543 218.83 189.262V189.348ZM216.16 99.9964C215.463 99.346 217.129 98.2845 217.486 98.7297C218.167 99.2945 216.466 100.27 216.16 99.9108V99.9964ZM217.486 209.751C216.807 209.101 218.457 208.125 218.83 208.484C219.511 209.067 217.861 210.026 217.486 209.666V209.751ZM218.83 203.385C218.133 202.717 219.783 201.672 220.157 202.099C220.854 202.682 219.204 203.657 218.83 203.298V203.385ZM218.83 200.833C219.067 199.789 220.157 199.567 220.157 198.266C219.289 196.982 217.095 196.948 217.486 194.449C218.576 194.688 218.813 195.732 220.157 195.732C221.501 195.732 221.414 195.219 221.501 194.449C222.724 193.61 222.504 201.98 218.83 200.748V200.833ZM218.83 185.428C218.83 185.513 220.02 183.014 220.157 182.877C220.292 182.741 220.054 181.611 220.157 181.594C224.97 180.789 220.292 187.277 218.83 185.428ZM222.827 145.853C224.221 144.535 224.902 146.435 224.154 147.137C222.776 148.455 222.095 146.572 222.827 145.853ZM225.496 179.043C225.496 180.293 223.796 180.036 222.827 180.327C222.877 179.077 224.458 179.334 225.496 179.043ZM225.496 195.647C223.133 194.705 225.311 193.319 225.496 191.812C227.877 192.754 225.683 194.14 225.496 195.647ZM229.493 175.226C225.021 174.062 228.846 172.847 228.167 168.841C231.058 168.619 228.78 173.36 229.493 175.226ZM229.493 158.622C228.814 157.972 230.462 156.996 230.837 157.356C231.534 158.006 229.868 158.931 229.493 158.622ZM232.181 156.072C228.083 154.822 233.712 152.649 233.508 150.937C237.606 152.221 231.977 154.377 232.181 156.072ZM233.508 131.817C233.762 130.379 234.85 131.115 234.834 131.817C234.578 133.255 233.474 132.536 233.474 131.817H233.508ZM237.503 134.368C237.266 135.822 236.178 135.086 236.178 134.368C236.431 132.93 237.503 133.666 237.503 134.368ZM236.178 147.137C234.665 146.897 235.428 145.853 236.178 145.853C236.431 144.775 235.65 144.655 234.834 144.587C236.518 140.649 238.847 146.007 236.178 147.137ZM234.834 128C231.739 126.579 231.28 128.274 228.167 125.45C228.949 121.307 227.249 119.493 226.84 116.514C230.819 119.223 233.663 123.312 234.834 128ZM230.837 89.709C231.534 90.3594 229.868 91.3351 229.493 90.9757C228.814 90.3251 230.462 89.3496 230.837 89.709ZM228.167 106.295C228.846 106.946 227.198 107.922 226.84 107.562C226.143 106.912 227.793 105.953 228.167 106.295ZM225.496 117.849C226.195 118.5 224.527 119.476 224.154 119.133C223.473 118.397 225.123 117.439 225.496 117.849ZM226.84 144.655C225.548 145.391 223.814 142.087 222.827 140.838C217.095 133.358 227.317 144.312 226.84 144.587V144.655ZM236.178 66.8063C236.875 67.4567 235.209 68.518 234.834 68.073C234.153 67.354 235.803 66.3783 236.178 66.7377V66.8063ZM230.837 32.2638C229.646 33.0343 228.456 33.8045 228.167 32.2638C228.508 30.672 230.821 30.9802 230.837 32.2638ZM230.837 33.5305C234.902 35.0882 228.881 38.4089 232.181 39.9153C231.381 42.962 229.612 36.5946 226.84 37.3648C226.977 34.9685 231.246 36.4919 230.837 33.5476V33.5305ZM233.508 46.3C233.242 47.1324 232.696 47.8443 231.961 48.3107C231.228 48.7772 230.353 48.9683 229.493 48.8505C228.881 46.146 231.415 46.437 233.474 46.3171L233.508 46.3ZM226.84 39.9153C227.521 40.5657 225.871 41.627 225.496 41.182C224.799 40.5486 226.467 39.5729 226.84 39.9323V39.9153ZM225.496 33.5305C226.195 34.1982 224.527 35.1568 224.154 34.8143C223.473 34.1639 225.123 33.1882 225.496 33.5476V33.5305ZM210.819 38.6658C211.516 39.3333 209.85 40.3774 209.476 39.9494C208.797 39.2647 210.445 38.3062 210.819 38.6486V38.6658ZM202.86 11.8432C203.559 12.5108 201.891 13.5549 201.518 13.127C200.786 12.4765 202.434 11.5009 202.86 11.8432ZM196.143 47.6693C191.041 43.972 200.275 43.2359 202.809 42.5342C204.85 48.2685 194.085 41.8152 196.143 47.6693ZM201.465 41.2847C205.037 38.8026 215.582 40.5143 216.16 45.1188C217.963 44.7251 217.266 41.9351 217.486 39.9837C220.53 38.2721 222.504 43.2702 222.827 39.9837C226.687 39.299 220.786 44.9477 221.501 41.2504C216.569 42.1918 222.061 45.1017 218.83 47.635C223.558 50.7675 223.761 58.2306 229.493 60.4045C230.871 59.5657 230.887 57.4603 233.508 57.854C232.847 58.7621 232.388 59.8013 232.16 60.9024C231.931 62.0034 231.939 63.1407 232.181 64.2387C228.967 65.6423 225.871 63.5883 228.167 69.3738C225.77 69.2026 225.361 70.9314 222.827 70.6404C222.452 68.4152 227.096 63.7937 221.501 64.273C223.592 63.2973 223.489 60.2162 226.84 60.4386C226.517 56.6558 221.874 58.727 220.157 60.4386C218.286 59.9937 220.038 58.1963 221.501 57.8883C220.951 57.1631 220.55 56.3365 220.32 55.4553C220.091 54.5742 220.034 53.6558 220.157 52.753C214.355 48.2398 208.09 44.3663 201.465 41.199V41.2847ZM221.501 46.4198C220.804 45.7523 222.452 44.708 222.827 45.136C223.508 45.7008 221.858 46.6594 221.567 46.3171L221.501 46.4198ZM218.83 63.0063C219.46 68.655 216.994 69.3566 218.83 73.2765C223.082 74.0468 222.945 70.8802 225.496 73.2765C222.402 76.2891 216.483 76.5801 216.16 82.2288C211.653 80.1404 215.395 70.2467 212.147 66.8235C211.835 66.8596 211.549 67.0097 211.341 67.2448C211.134 67.4799 211.017 67.7838 211.017 68.0986C211.017 68.4134 211.134 68.7173 211.341 68.9524C211.549 69.1875 211.835 69.3374 212.147 69.3738C204.562 72.2665 210.819 60.0964 218.83 62.9036V63.0063ZM213.491 91.0784C213.235 92.5333 212.147 91.7972 212.147 91.0784C212.401 89.5379 213.491 90.2738 213.491 90.9757V91.0784ZM210.819 122.985C207.181 119.116 214.885 126.408 210.819 122.985V122.985ZM209.476 105.131C210.173 105.782 208.525 106.843 208.15 106.398C207.453 105.645 209.119 104.669 209.476 105.029V105.131ZM206.806 116.617C206.55 118.055 205.462 117.319 205.479 116.617C205.734 115.059 206.806 115.795 206.806 116.514V116.617ZM201.465 147.24C205.581 145.288 205.581 155.576 201.465 153.624V147.24ZM198.813 91.0784C199.493 91.7459 197.843 92.7045 197.469 92.3622C196.772 91.5918 198.439 90.6332 198.813 90.9757V91.0784ZM197.469 85.9433C198.166 86.5937 196.5 87.6549 196.143 87.2269C195.445 86.4909 197.095 85.5324 197.469 85.8747V85.9433ZM176.108 99.9792C176.806 100.647 175.156 101.691 174.782 101.263C174.085 100.527 175.751 99.5514 176.108 99.9108V99.9792ZM158.761 111.465C159.458 112.132 157.792 113.176 157.435 112.749C156.737 112.013 158.387 111.003 158.761 111.396V111.465ZM157.435 108.914C158.115 109.582 156.465 110.626 156.091 110.198C155.394 109.462 157.061 108.503 157.435 108.846V108.914ZM154.764 103.779C154.05 105.748 153.37 103.865 153.421 102.495C154.135 100.51 154.815 102.444 154.764 103.745V103.779ZM174.306 110.626C177.576 109.635 180.912 108.879 184.289 108.367C180.972 106.501 184.544 101.143 185.462 98.6098C183.915 98.4044 183.081 98.8837 182.792 99.8765C180.581 99.7054 184.187 94.5531 182.792 90.9414C188.608 92.653 187.333 101.058 188.132 107.528C187.715 107.411 187.274 107.411 186.858 107.529C186.441 107.646 186.064 107.877 185.768 108.195C193.405 107.459 197.095 109.702 196.806 115.042C196.364 122.471 196.16 128.873 196.16 134.248V144.158C196.16 145.391 192.503 146.64 185.224 147.873C181.575 148.487 177.826 147.949 174.493 146.332C173.319 148.044 172.418 146.692 171.772 144.843C168.874 142.947 166.262 140.641 164.016 137.996C157.146 130.157 153.29 125.82 152.451 124.987C151.958 124.386 151.59 123.692 151.368 122.945C151.146 122.198 151.075 121.414 151.159 120.64C151.159 118.563 158.874 115.236 174.306 110.66V110.626ZM144.084 97.309C144.764 97.9766 143.115 98.9351 142.74 98.5927C142.06 97.9766 143.71 97.0181 144.084 97.309ZM138.744 135.651C141.601 135.052 141.295 137.483 141.414 139.486C140.325 139.246 140.087 138.202 138.744 138.202V135.651ZM138.744 175.226C138.046 174.559 139.713 173.514 140.07 173.942C140.768 174.61 139.118 175.569 138.744 175.226ZM138.744 143.303C138.149 145.168 137.57 143.183 136.074 143.303C136.397 141.694 138.727 142.019 138.744 143.303ZM134.73 185.428C139.832 184.23 143.795 176.869 149.424 180.293C149.394 181.296 149.138 182.279 148.675 183.169C148.213 184.058 147.556 184.831 146.754 185.428C146.244 185.753 145.053 183.905 144.084 184.161C143.115 184.418 142.774 188.475 140.07 185.428C136.465 187.14 136.04 191.778 136.074 196.914C129.9 196.468 135.359 188.68 134.73 185.428ZM132.077 198.18C134.424 197.786 134.441 205.336 130.733 203.316C130.563 201.005 132.366 200.594 132.077 198.18ZM82.7563 259.46C82.0591 258.792 83.7258 257.748 84.083 258.176C84.7123 258.826 83.0454 259.803 82.6884 259.46H82.7563ZM124.135 115.231C124.815 115.898 123.165 116.857 122.791 116.514C122.043 115.847 123.692 114.871 124.067 115.231H124.135ZM112.111 165.007C111.43 164.34 113.08 163.295 113.454 163.74C114.066 164.391 112.417 165.367 112.043 165.007H112.111ZM112.111 138.202C111.43 137.551 113.08 136.576 113.454 136.935C114.066 137.586 112.417 138.561 112.043 138.202H112.111ZM114.781 196.914C114.1 196.263 115.75 195.287 116.124 195.647C116.737 196.297 115.087 197.273 114.713 196.914H114.781ZM117.383 102.444C116.703 101.794 118.352 100.818 118.726 101.177C119.407 101.845 117.825 102.821 117.383 102.444ZM118.726 210.932C118.981 209.495 120.07 210.231 120.053 210.932C119.798 212.405 118.726 211.668 118.726 210.95V210.932ZM121.397 119.048C120.699 118.38 122.366 117.336 122.723 117.764C123.42 118.431 121.754 119.407 121.397 119.065V119.048ZM122.723 219.867C122.043 219.217 123.692 218.156 124.067 218.6C124.747 219.268 123.097 220.245 122.723 219.885V219.867ZM124.067 124.149C123.369 123.481 125.019 122.522 125.393 122.865C126.091 123.549 124.424 124.525 124.067 124.166V124.149ZM125.393 235.188C126.091 235.837 124.424 236.814 124.067 236.455C123.369 235.821 125.019 234.845 125.393 235.204V235.188ZM122.723 232.637C123.42 233.305 121.754 234.263 121.397 233.92C120.699 233.271 122.366 232.294 122.723 232.653V232.637ZM120.053 237.773C120.053 239.022 118.352 238.765 117.383 239.056C117.434 237.789 119.032 238.045 120.053 237.754V237.773ZM116.124 249.241C113.267 249.84 113.573 247.408 113.454 245.407C114.286 245.608 115.017 246.111 115.508 246.817C116 247.521 116.219 248.383 116.124 249.241ZM108.114 254.376C108.794 255.026 107.145 255.985 106.77 255.642C106.022 254.958 107.621 253.999 108.046 254.358L108.114 254.376ZM78.7087 284.981C84.6271 286.95 77.9774 288.49 76.0385 290.117C71.3277 287.909 79.355 287.513 78.7087 284.981ZM62.6882 307.951C63.3854 305.984 64.0827 307.867 64.0146 309.237C63.3004 311.273 62.603 309.305 62.671 307.951H62.6882ZM62.6882 292.633C65.9704 293.676 64.3887 302.44 64.0146 305.403C60.9534 303.639 63.5045 296.518 62.671 292.633H62.6882ZM46.6674 325.822C46.9224 324.368 48.011 325.104 48.011 325.822C47.7388 327.261 46.6505 326.525 46.6505 325.822H46.6674ZM56.0213 295.184C54.0146 296.689 54.4396 300.489 50.6811 300.317C52.2288 298.4 51.8035 294.601 56.0042 295.184H56.0213ZM48.011 299.018C51.1572 299.411 50.4771 303.451 54.6778 302.852C54.6778 304.083 52.977 303.827 52.0076 304.117C50.443 304.323 50.8852 306.446 50.6811 307.951C47.5347 306.087 48.181 305.247 43.9972 306.668C44.6947 303.552 49.1504 303.964 47.994 299.018H48.011ZM43.9972 315.604C44.6947 316.271 43.028 317.315 42.6708 316.887C41.9564 316.219 43.6062 315.26 43.9803 315.604H43.9972ZM42.6708 327.09C40.3918 325.276 38.0448 320.243 40.0006 318.154C43.8102 320.037 41.4632 321.542 42.6536 327.09H42.6708ZM38.657 310.502C40.0177 311.991 39.7115 313.515 38.657 311.769C37.6025 310.024 37.2456 308.979 38.6401 310.502H38.657Z" fill="#9E1522"/>
<path d="M274.869 43.7666C273.525 44.5881 273.509 46.6937 270.89 46.3171C270.821 46.5736 270.793 46.8392 270.803 47.1043C272.624 46.6937 274.444 46.3171 276.281 45.9404C275.683 45.3083 275.203 44.5716 274.869 43.7666Z" fill="#9E1522"/>
<path d="M273.541 33.5476C274.681 37.6215 271.45 37.5018 270.89 39.9325C273.049 44.8279 278.713 39.7783 281.553 42.4828C282.675 44.1091 281.432 44.7423 280.294 45.1017C281.229 44.8963 282.164 44.6908 283.1 44.4513C286.245 43.6639 289.563 42.5171 291.604 39.8982C293.645 37.2793 293.305 32.8117 290.361 31.3396C289.106 30.8769 287.76 30.7185 286.433 30.8775L270.89 31.545C270.89 31.7676 270.89 31.973 270.89 32.1954C270.89 33.5135 272.59 33.2567 273.541 33.5476ZM292.249 37.382C291.995 38.8198 290.907 38.0838 290.907 37.382C291.145 35.927 292.233 36.663 292.233 37.3991L292.249 37.382Z" fill="#9E1522"/>
<path d="M274.869 232.653C275.259 232.996 276.909 232.021 276.212 231.37C275.838 231.029 274.188 231.987 274.869 232.653Z" fill="#9E1522"/>
<path d="M286.451 137.996V133.135C286.451 131.988 282.385 131.783 274.29 132.502C273.219 135.925 274.631 139.674 273.95 144.022C282.266 141.18 286.451 139.177 286.451 137.996ZM277.556 133.101C278.235 133.751 276.587 134.813 276.212 134.368C275.515 133.717 277.181 132.741 277.556 133.101Z" fill="#9E1522"/>
<path d="M271.331 121.119C270.956 114.015 270.6 107.186 270.312 100.168C259.948 110.814 253.479 116.138 250.905 116.138C247.675 116.138 246.059 116.959 246.059 118.586C246.059 120.212 247.76 121.581 250.905 122.642C253.695 123.532 260.502 123.025 271.331 121.119Z" fill="#9E1522"/>
<path d="M348.288 332.207C348.56 328.22 347.387 322.828 349.632 320.721C352.676 325.395 352.897 330.393 353.357 335.289C358.22 334.968 363.073 334.593 367.915 334.159C368.305 332.891 368.628 331.592 370.975 332.207C370.586 332.726 370.282 333.303 370.074 333.919C373.374 333.612 376.656 333.285 379.956 332.91H380.313C380.053 330.099 379.609 327.308 378.985 324.555C384.582 325.873 379.922 329.606 384.326 330.924C384.563 332.02 383.798 332.139 382.982 332.207C382.982 332.31 382.897 332.447 382.847 332.55C383.629 332.413 384.402 332.225 385.16 331.985C383.884 325.017 382.609 317.898 381.656 310.502C381.06 309.372 380.482 308.226 378.985 307.951C379.241 306.496 380.329 307.251 380.329 307.951C383.272 307.782 380.891 302.543 381.656 300.301C386.078 307.148 390.16 314.233 392.336 323.272C389.088 321.27 387.336 317.829 386.997 313.002C384.769 320.106 387.303 323.562 388.307 330.272C392.813 326.696 393.817 320.652 392.626 314.132C392.132 313.806 392.098 313.037 392.201 312.147C390.321 304.991 386.755 298.398 381.809 292.924C380.925 295.047 380.516 297.22 381.656 297.7C381.4 299.137 380.329 298.4 380.329 297.7C377.403 297.46 376.078 298.725 376.316 301.516C372.268 299.942 377.762 297.135 376.316 293.864C375.892 291.529 375.179 289.259 374.19 287.104C372.889 286.484 371.478 286.123 370.04 286.042C369.047 285.976 368.049 286.091 367.099 286.385C366.893 286.848 366.468 287.07 366.111 286.864C365.952 286.957 365.799 287.059 365.652 287.172C365.108 287.685 364.689 288.319 364.427 289.021C365.249 289.41 366.095 289.741 366.962 290.014C367.133 292.308 365.261 292.702 365.618 295.149C362.505 295.936 365.43 290.954 364.036 290.014L363.917 290.339C362.592 294.498 361.248 298.675 359.904 302.834C353.699 304.904 347.349 306.503 340.906 307.61C343.356 311.65 346.009 315.382 344.309 319.319C342.647 315.44 340.785 311.652 338.731 307.97C337.489 308.157 336.265 308.347 335.022 308.5C336.212 315.347 339.837 323.29 338.968 332.088C338.968 333.799 341.299 333.251 341.638 334.621C337.302 335.374 335.431 333.765 332.302 333.354C332.54 334.484 332.862 335.408 333.015 336.161C338.866 335.973 344.7 335.698 350.55 335.339C349.869 334.296 349.869 332.482 348.288 332.207ZM388.323 305.403C389.02 306.053 387.354 307.027 386.997 306.668C386.298 306.018 387.966 305.042 388.323 305.403ZM381.656 318.12C381.656 319.369 379.956 319.113 378.985 319.403C379.019 318.205 380.619 318.445 381.656 318.12ZM374.99 321.954C374.293 321.304 375.941 320.328 376.316 320.687C377.013 321.373 375.346 322.348 374.99 321.988V321.954ZM374.99 302.818C376.281 302.818 376.009 304.376 376.316 305.368C374.7 307.645 376.078 312.797 373.646 314.302C372.846 316.921 375.806 323.169 370.975 321.954C372.931 316.219 372.318 307.951 374.99 302.852V302.818ZM369.649 325.788C368.509 325.548 368.39 326.285 368.305 327.055H365.636V324.521C366.774 324.745 366.893 324.008 366.98 323.237H369.649V325.788ZM369.649 298.984C370.33 299.652 368.68 300.695 368.305 300.267C367.624 299.633 369.274 298.659 369.649 299.018V298.984ZM366.98 296.433C367.659 297.083 366.009 298.059 365.636 297.716C364.955 297.083 366.605 296.108 366.98 296.467V296.433Z" fill="#9E1522"/>
<path d="M241.432 292.599H241.518C241.575 292.647 241.621 292.71 241.653 292.778C241.686 292.849 241.702 292.924 241.702 293C241.702 293.077 241.686 293.152 241.653 293.222C241.621 293.291 241.575 293.353 241.518 293.402C242.419 307.455 246.212 322.691 258.933 329.519C262.17 331.212 265.595 332.518 269.137 333.406C267.658 331.021 266.476 328.464 265.617 325.788C257.47 313.584 253.389 297.476 245.582 284.947V279.811C244.428 278.33 243.515 276.671 242.878 274.899C241.911 278.239 241.373 281.692 241.279 285.169C241.212 287.548 241.279 290.048 241.432 292.599ZM265.549 329.64C266.23 330.306 264.58 331.352 264.205 330.924C263.508 330.272 265.158 329.297 265.549 329.64Z" fill="#9E1522"/>
<path d="M309.581 336.572C309.903 336.126 310.669 335.801 310.923 336.041C310.997 336.106 311.047 336.193 311.07 336.288C311.09 336.383 311.082 336.481 311.043 336.572C313.763 336.572 316.467 336.572 319.189 336.572C317.998 335.527 317.71 333.662 316.62 332.532C319.767 335.271 320.43 330.666 324.257 330.94C323.135 327.328 322.726 323.066 321.604 319.456C326.195 317.914 326.586 312.369 329.477 309.184C317.577 310.189 305.594 309.55 293.865 307.285C291.687 306.977 289.618 306.135 287.839 304.834C286.06 303.532 284.626 301.811 283.661 299.821C283.185 300.249 282.963 300.386 283.661 299.684C281.789 294.99 281.269 289.856 282.164 284.878C281.225 286.674 280.145 288.391 278.934 290.014V311.701C279.8 315.569 285.004 315.279 286.944 318.086C289.92 317.914 285.242 314.885 286.944 311.701C289.12 316.015 291.757 319.884 293.627 324.487C298.865 325.001 304.665 324.967 305.634 329.622C302.08 333.148 300.94 328.698 297.624 328.355C293.712 329.435 298.424 332.464 297.624 334.724C295.821 333.113 294.955 330.855 293.627 334.724C291.348 333.902 292.795 331.796 294.955 332.189C295.277 326.472 291.314 324.692 288.286 319.422C284.291 320.705 285.635 327.106 284.273 330.906C281.094 327.98 279.937 323.153 280.26 316.871C274.732 316.681 278.882 325.754 277.607 329.622C279.001 332.429 277.76 333.456 277.963 335.133C282.623 335.751 287.351 336.007 292.029 336.179C297.846 336.419 303.712 336.52 309.581 336.572ZM318.917 311.769C319.614 312.437 317.964 313.481 317.591 313.053C316.91 312.385 318.51 311.426 318.917 311.769ZM318.917 322.039C321.739 322.432 317.522 326.472 314.92 325.873C312.844 321.286 319.461 325.052 318.917 321.988V322.039ZM280.209 302.902C280.548 301.294 282.863 301.601 282.895 302.902C281.706 303.639 280.498 304.426 280.209 302.852V302.902ZM289.563 306.72C286.382 313.43 281.279 309.493 289.563 306.72V306.72ZM290.889 316.99V314.439C293.746 313.84 293.44 316.253 293.577 318.257C292.489 317.932 292.233 316.887 290.889 316.887V316.99ZM292.233 313.156C291.536 312.488 293.186 311.445 293.577 311.872C294.257 312.437 292.607 313.412 292.233 312.984V313.156ZM288.236 324.658C287.539 323.974 289.189 322.947 289.563 323.375C290.26 323.922 288.592 324.967 288.236 324.555V324.658Z" fill="#9E1522"/>
<path d="M288.22 263.568C288.892 261.451 289.461 259.304 289.92 257.131C287.895 257.936 288.083 260.743 288.22 263.568Z" fill="#9E1522"/>
<path d="M153.676 336.504C156.941 318.582 160.751 301.004 165.445 282.43C166.737 282.43 166.482 283.988 166.771 284.981C163.812 294.925 162.979 306.874 158.761 315.604C158.57 322.535 157.617 329.425 155.921 336.144C167.459 334.165 177.94 328.165 185.53 319.198C186.653 315.688 186.636 315.416 185.53 311.751C187.792 312.232 188.047 310.76 188.2 309.219C187.044 308.192 187.401 305.709 185.53 305.385C187.231 295.115 186.517 282.517 188.2 272.195C191.466 283.03 188.523 293.745 188.2 304.101C188.098 306.823 189.527 307.524 189.527 309.237C189.527 310.948 189.527 312.472 189.408 314.132C196.568 304.614 213.847 285.033 213.829 274.762C213.829 273.107 208.444 265.12 197.673 250.799C186.902 236.477 179.901 229.305 176.67 229.281C173.438 229.281 171.017 231.763 169.408 236.727C167.797 241.692 164.028 252.447 158.098 268.995C154.985 277.672 151.601 286.573 145.819 293.795C140.938 299.908 132.213 303.861 129.169 311.085C127.442 315.62 126.728 320.483 127.077 325.326C127.069 326.741 127.27 328.147 127.672 329.503C129.22 333.919 134.305 335.751 138.829 336.35C143.746 337.105 148.744 337.157 153.676 336.504ZM204.137 272.211C203.438 274.181 202.759 272.298 202.809 270.946C203.524 268.976 204.203 270.859 204.137 272.211ZM198.813 278.596C202.215 281.49 197.112 287.051 196.143 290.082C192.656 287.035 198.541 282.174 198.813 278.596ZM193.473 299.018C191.245 302.013 193.592 298.556 193.473 296.467C193.847 291.709 196.789 300.233 193.473 299.018ZM193.473 292.633C189.816 288.746 197.52 296.056 193.473 292.633V292.633ZM190.802 263.344C191.483 264.012 189.833 265.058 189.459 264.63C188.762 263.893 190.428 262.935 190.802 263.344ZM188.132 241.657C188.812 242.307 187.163 243.284 186.789 242.925C186.108 242.188 187.758 241.229 188.132 241.589V241.657ZM186.789 245.475C187.486 246.143 185.836 247.186 185.462 246.759C184.765 246.022 186.414 245.064 186.789 245.407V245.475ZM184.119 250.609C185.241 246.553 185.819 252.869 185.462 254.443C184.34 258.398 183.694 252.082 184.153 250.524L184.119 250.609ZM182.792 258.211H185.462C184.571 259.284 184.094 260.644 184.119 262.045C181.346 261.29 181.296 260.025 182.792 258.211ZM182.792 268.48C182.452 270.088 180.139 269.763 180.122 268.48C180.751 266.529 181.296 268.48 182.792 268.377V268.48ZM181.449 272.314C181.193 273.769 180.122 273.016 180.122 272.314C180.377 270.756 181.466 271.493 181.449 272.211V272.314ZM181.449 276.148C181.193 277.587 180.122 276.851 180.122 276.148C180.377 274.59 181.466 275.327 181.449 276.045V276.148ZM180.122 279.966C184.17 281.54 178.676 284.365 180.122 287.635C176.363 286.23 180.496 282.174 180.122 279.863V279.966ZM178.778 292.736C177.741 295.063 177.35 291.965 177.452 290.185C178.489 287.754 178.88 290.853 178.778 292.633V292.736ZM177.452 274.865C178.149 275.533 176.482 276.491 176.108 276.148C175.428 275.327 177.078 274.419 177.452 274.762V274.865ZM176.108 268.48C175.853 269.935 174.782 269.198 174.782 268.48C175.037 266.94 176.125 267.675 176.108 268.377V268.48ZM176.108 301.669C179.952 304.186 175.649 309.63 176.108 313.156C172.248 310.536 176.584 305.094 176.108 301.567V301.669ZM173.438 285.084C174.136 285.734 172.486 286.71 172.112 286.351C171.414 285.596 173.081 284.622 173.438 284.981V285.084ZM169.442 274.814C169.442 273.581 171.142 273.838 172.112 273.547C172.078 274.728 170.547 274.488 169.442 274.762V274.814ZM169.442 269.679C170.156 267.727 170.836 269.592 170.768 270.962C170.071 272.913 169.39 271.013 169.442 269.661V269.679ZM170.768 263.294C171.465 263.962 169.816 265.005 169.442 264.577C168.744 263.893 170.411 262.935 170.768 263.344V263.294ZM165.445 281.147C165.994 280.422 166.395 279.595 166.623 278.713C166.85 277.831 166.901 276.913 166.771 276.011C169.135 275.636 169.152 283.201 165.445 281.147ZM168.115 253.075C168.795 253.725 167.146 254.701 166.771 254.358C166.074 253.674 167.741 252.716 168.115 253.075ZM165.445 268.377C166.125 269.045 164.476 270.088 164.101 269.661C163.404 268.995 165.071 268.036 165.445 268.377ZM161.431 281.147C165.904 278.065 158.217 285.427 161.431 281.147V281.147ZM132.077 327.09C131.38 326.438 133.029 325.463 133.403 325.822C134.101 326.472 132.434 327.449 132.077 327.09ZM141.414 325.822C137.621 326.028 138.812 321.508 133.403 323.272C133.08 318.616 138.778 320.911 140.07 320.721C143.472 320.19 146.686 318.564 152.094 319.438C150.087 321.783 146.516 322.622 145.41 325.822C143.455 325.839 141.193 320.43 141.414 325.822ZM144.084 328.373C148.557 325.292 140.853 332.651 144.084 328.373V328.373Z" fill="#9E1522"/>
<path d="M37.7728 85.481V100.065H36.1911V85.481H31.6332V83.9748H42.2797V85.481H37.7728Z" fill="white" stroke="white" stroke-width="0.35" stroke-miterlimit="10"/>
<path d="M59.6779 100.065V92.7729H52.1438V100.065H50.5961V83.9748H52.1438V91.2667H59.6779V83.9748H61.2084V100.065H59.6779Z" fill="white" stroke="white" stroke-width="0.35" stroke-miterlimit="10"/>
<path d="M70.7155 100.065V83.9748H79.8653V85.481H72.2631V91.2667H79.4741V92.7729H72.2631V98.5586H79.8653V100.065H70.7155Z" fill="white" stroke="white" stroke-width="0.35" stroke-miterlimit="10"/>
<path d="M281.094 255.95H273.694L272.471 259.666H270.89L276.228 243.592H278.628L283.985 259.666H282.284L281.094 255.95ZM280.616 254.443L277.556 245.116H277.216L274.172 254.443H280.616Z" fill="white" stroke="white" stroke-width="0.35" stroke-miterlimit="10"/>
<path d="M301.978 250.661C301.573 251.174 301.117 251.644 300.618 252.064C300.187 252.395 299.661 252.576 299.121 252.578L303.1 259.666H301.399L297.471 252.578H293.474V259.666H291.927V243.592H299.121C299.683 243.592 300.231 243.772 300.686 244.105C301.182 244.535 301.637 245.011 302.046 245.526C302.312 245.937 302.449 246.422 302.437 246.912V249.275C302.431 249.773 302.27 250.258 301.978 250.661ZM300.837 246.964C300.865 246.817 300.865 246.666 300.837 246.519C300.505 245.982 300.058 245.526 299.528 245.185C299.387 245.112 299.228 245.082 299.07 245.098H293.458V251.071H299.07C299.228 251.075 299.385 251.039 299.528 250.97C300.054 250.641 300.499 250.203 300.837 249.685C300.865 249.533 300.865 249.376 300.837 249.223V246.964Z" fill="white" stroke="white" stroke-width="0.35" stroke-miterlimit="10"/>
<path d="M321.773 257.696C321.3 258.354 320.726 258.931 320.073 259.407C319.664 259.666 319.195 259.813 318.713 259.835H315.21C314.716 259.813 314.237 259.666 313.816 259.407C313.127 258.885 312.52 258.261 312.012 257.559C311.779 257.173 311.66 256.727 311.672 256.275V247.084C311.66 246.632 311.779 246.186 312.012 245.8C312.518 245.088 313.127 244.452 313.816 243.917C314.225 243.661 314.694 243.514 315.175 243.49H318.713C319.195 243.514 319.664 243.661 320.073 243.917C320.73 244.39 321.304 244.969 321.773 245.629C322.017 245.953 322.221 246.303 322.386 246.674L320.839 247.118C320.456 246.303 319.87 245.6 319.138 245.082C319.015 245.051 318.886 245.051 318.763 245.082H315.363C315.252 245.049 315.133 245.049 315.022 245.082C314.339 245.522 313.759 246.105 313.322 246.793C313.294 246.916 313.294 247.045 313.322 247.168V256.225C313.294 256.336 313.294 256.455 313.322 256.566C313.759 257.254 314.339 257.837 315.022 258.279C315.125 258.338 315.244 258.368 315.363 258.364H318.763C318.892 258.366 319.021 258.336 319.138 258.279C319.853 257.746 320.436 257.054 320.839 256.259L322.386 256.703C322.211 257.052 322.007 257.383 321.773 257.696Z" fill="white" stroke="white" stroke-width="0.35" stroke-miterlimit="10"/>
<path d="M340.141 259.666V252.391H332.608V259.666H331.061V243.592H332.608V250.883H340.141V243.592H341.69V259.666H340.141Z" fill="white" stroke="white" stroke-width="0.35" stroke-miterlimit="10"/>
<path d="M351.179 259.666V243.592H352.726V259.666H351.179Z" fill="white" stroke="white" stroke-width="0.35" stroke-miterlimit="10"/>
<path d="M368.289 259.666H365.89L360.789 243.592H362.489L366.962 258.005H367.336L371.775 243.592H373.475L368.289 259.666Z" fill="white" stroke="white" stroke-width="0.35" stroke-miterlimit="10"/>
<path d="M381.435 259.666V243.592H390.585V245.098H382.982V250.883H390.194V252.391H382.982V258.211H390.585V259.7L381.435 259.666Z" fill="white" stroke="white" stroke-width="0.35" stroke-miterlimit="10"/>
<path d="M410.703 257.525C410.19 258.227 409.577 258.85 408.884 259.373C408.475 259.631 408.006 259.779 407.524 259.803H403.102C402.615 259.781 402.139 259.633 401.724 259.373C401.071 258.897 400.499 258.318 400.024 257.662C399.806 257.329 399.613 256.98 399.446 256.618L400.959 256.172C401.005 256.29 401.069 256.398 401.146 256.497C401.577 257.192 402.157 257.777 402.846 258.211C402.963 258.269 403.092 258.299 403.221 258.295H407.44C407.552 258.297 407.663 258.267 407.762 258.211C408.441 257.807 409.021 257.258 409.462 256.6C409.517 256.495 409.545 256.378 409.547 256.259V254.546C409.549 254.274 409.466 254.007 409.311 253.783C409.156 253.559 408.936 253.39 408.681 253.297L401.349 251.364C400.832 251.188 400.386 250.847 400.078 250.393C399.772 249.939 399.621 249.396 399.649 248.847V247.136C399.629 246.682 399.736 246.23 399.955 245.834C400.479 245.124 401.098 244.49 401.793 243.952C402.202 243.695 402.671 243.548 403.152 243.524H407.115C407.599 243.548 408.066 243.695 408.475 243.952C409.132 244.424 409.706 245.003 410.177 245.663C410.419 245.988 410.625 246.337 410.79 246.708L409.241 247.152C409.194 247.033 409.138 246.92 409.071 246.809C408.648 246.111 408.064 245.524 407.371 245.098C407.258 245.07 407.141 245.07 407.031 245.098H403.271C403.161 245.068 403.044 245.068 402.931 245.098C402.252 245.477 401.67 246.01 401.231 246.656C401.16 246.757 401.118 246.876 401.112 246.999V248.71C401.11 248.974 401.188 249.233 401.337 249.451C401.486 249.669 401.7 249.834 401.946 249.925L409.206 251.945C409.718 252.124 410.159 252.463 410.466 252.913C410.772 253.363 410.927 253.9 410.909 254.445V256.259C410.959 256.691 410.889 257.131 410.703 257.525Z" fill="white" stroke="white" stroke-width="0.35" stroke-miterlimit="10"/>
<path d="M388.798 142.635C382.319 145.65 376.682 150.231 372.387 155.969V137.14L371.827 137.654C360.736 147.325 333.986 153.059 333.712 153.059H333.424V158.195H333.764C337.649 158.575 341.245 160.424 343.828 163.369C346.408 166.314 347.784 170.136 347.676 174.062V196.759C347.676 216.017 340.431 219.696 333.355 220.723H333.134L331.333 226.286H389.157L387.37 220.741H387.132C377.115 219.028 372.437 211.462 372.437 196.777V182.775L371.893 183.151C368.954 185.471 366.43 188.278 364.427 191.453C366.15 184.457 369.667 178.041 374.631 172.847C380.482 167.264 388.22 164.125 396.283 164.066C398.932 164.065 401.569 164.428 404.122 165.144L404.446 165.23L412.95 138.51C404.68 137.732 396.351 139.155 388.798 142.635Z" fill="white"/>
<path d="M152.86 221.528C144.475 220.158 137.707 214.818 137.707 196.879V137.449C130.104 144.723 98.9983 153.145 98.9983 153.145V157.767C103.046 158.091 106.811 159.983 109.501 163.044C112.191 166.106 113.596 170.099 113.42 174.182V196.879C113.42 214.818 107.74 220.158 98.6242 221.528L97.0254 226.44H154.441L152.86 221.528Z" fill="white"/>
<path d="M66.8039 197.53C62.11 201.141 52.3648 204.377 52.3648 204.377C56.4295 202.236 62.5691 193.473 65.9704 187.687C66.5756 186.78 66.8683 185.697 66.8039 184.606V131.115C66.8039 129.66 69.2528 129.541 72.4331 129.541C85.4096 129.541 100.733 135.823 103.046 141.522L107.349 140.119C107.349 140.119 98.8452 123.293 98.1989 108.469C53.2323 116.634 12.2791 108.795 9.16683 108.709C7.92142 119.625 4.82066 130.244 0 140.102L4.31978 141.522C7.51712 135.497 21.9561 129.541 34.9325 129.541C38.1128 129.541 40.5449 129.626 40.5449 131.132V196.845C40.5449 214.784 31.5822 220.142 22.4664 221.494L20.9016 226.405H86.4469L84.8483 221.494C75.9876 220.551 66.9739 214.937 66.8039 197.53Z" fill="white"/>
<path d="M321.451 196.588C318.05 203.179 310.941 212.73 297.114 212.73C282.079 212.73 277.572 197.564 277.572 197.564V197.649L331.859 179.471C327.471 156.106 309.937 139.006 285.226 142.96C279.609 143.912 274.238 145.986 269.433 149.062C264.626 152.138 260.48 156.152 257.241 160.867C254.003 165.582 251.735 170.903 250.574 176.515C249.414 182.127 249.381 187.917 250.479 193.542C255.139 219.474 276.212 233.817 299.409 229.846C315.413 227.108 327.336 217.129 333.527 201.261L321.451 196.588ZM273.219 178.632C272.572 172.265 273.831 161.738 283.644 158.331C293.712 155.233 299.834 162.132 302.999 167.78C304.133 169.769 305.052 171.875 305.737 174.062C305.737 174.062 283.626 181.268 274.256 184.469C273.734 182.577 273.388 180.64 273.219 178.684V178.632Z" fill="white"/>
<path d="M117.077 139.862C121.12 133.267 126.823 127.866 133.609 124.204C140.395 120.543 148.022 118.752 155.717 119.013L166.465 93.0298C148.676 92.7559 117.077 104.396 117.077 139.862Z" fill="white"/>
<path d="M225.311 215.674C224.797 215.387 224.269 215.129 223.727 214.903C228.889 211.152 233.097 206.228 236.014 200.533C238.93 194.838 240.473 188.531 240.515 182.124C240.525 175.339 238.883 168.654 235.732 162.656C232.579 156.658 228.014 151.529 222.436 147.719C215.433 150.696 209.01 154.904 203.472 160.146C208.116 164.682 211.297 173.497 211.297 183.665C211.4 189.912 210.048 196.096 207.35 201.723C206.961 202.565 206.494 203.366 205.956 204.119C205.277 205.15 204.491 206.103 203.609 206.96C201.476 208.851 198.697 209.836 195.857 209.705C193.018 209.574 190.34 208.339 188.387 206.26C184.187 201.535 181.363 193.182 181.363 183.614C181.363 169.15 187.809 157.373 195.786 156.842C195.575 160.356 195.626 163.88 195.938 167.386C207.844 147.342 222.299 132.005 250.514 129.181L265.821 92.7216C252.214 90.0171 210.513 103.471 198.796 140.393H196.636C172.384 140.393 152.758 159.068 152.758 182.124C152.758 195.63 162.009 221.597 197.673 221.597C206.687 221.597 216.245 234.417 216.245 250.199C216.245 265.982 207.453 274.762 197.673 274.762C187.129 274.762 178.966 265.982 178.966 250.199C178.883 242.688 181.15 235.339 185.445 229.196C172.962 222.452 149.016 230.104 149.016 252.869C149.016 274.231 167.452 292.24 197.214 292.24C223.83 292.24 245.447 276.336 245.447 251.773C245.346 244.543 243.452 237.454 239.935 231.148C236.419 224.844 231.391 219.524 225.311 215.674Z" fill="white"/>
</svg>
