<svg width="22" height="20" viewBox="0 0 22 20" fill="none" xmlns="http://www.w3.org/2000/svg">
<path fill-rule="evenodd" clip-rule="evenodd" d="M9.09113 4.0317C9.09113 5.88353 7.51228 7.39067 5.57235 7.39067C3.631 7.39067 2.05357 5.88353 2.05357 4.0317C2.05357 2.17988 3.631 0.671387 5.57235 0.671387C7.51228 0.671387 9.09113 2.17988 9.09113 4.0317ZM20.6395 11.3478C20.9695 11.6533 21.2059 12.0021 21.3617 12.3738C21.8332 13.4984 21.5883 14.8501 21.0842 15.9639C20.4866 17.2899 19.3425 18.2915 17.901 18.7295C17.261 18.9255 16.5898 19.0093 15.92 19.0093H4.05242C2.87147 19.0093 1.82646 18.747 0.969774 18.255C0.433106 17.9468 0.338234 17.2372 0.736132 16.7749C1.40166 16.0044 2.05868 15.2313 2.72138 14.4513C3.98446 12.9591 4.83548 12.5265 5.78137 12.9064C6.16511 13.0632 6.55026 13.2997 6.94675 13.5484C8.00309 14.2161 9.47149 15.1326 11.4058 14.1378C12.7279 13.4476 13.4954 12.2667 14.1634 11.2388L14.1769 11.2181C14.2218 11.1493 14.2664 11.0805 14.3109 11.012C14.538 10.6616 14.7617 10.3165 15.0152 9.99886C15.3295 9.60551 16.4963 8.37547 18.0044 9.25137C18.9658 9.80286 19.7744 10.549 20.6395 11.3478Z" fill="#2C2C2C"/>
</svg>
