<svg width="14" height="14" viewBox="0 0 14 14" fill="none" xmlns="http://www.w3.org/2000/svg">
<path d="M6.85912 8.4912C6.63566 8.4912 6.51408 8.36632 6.49436 8.11657L6.20846 4.48865C6.19532 4.28491 6.2479 4.11402 6.3662 3.97601C6.49107 3.83799 6.6521 3.76898 6.84927 3.76898C7.04644 3.76898 7.20746 3.83799 7.33233 3.97601C7.45721 4.11402 7.50978 4.28491 7.49007 4.48865L7.21403 8.11657C7.19431 8.36632 7.07601 8.4912 6.85912 8.4912ZM6.79011 10.6699C6.59952 10.6699 6.45164 10.6206 6.34648 10.522C6.2479 10.4169 6.1986 10.269 6.1986 10.0784V9.91082C6.1986 9.72022 6.2479 9.57563 6.34648 9.47704C6.45164 9.37189 6.59952 9.31931 6.79011 9.31931H6.91827C7.10887 9.31931 7.25346 9.37189 7.35205 9.47704C7.45721 9.57563 7.50978 9.72022 7.50978 9.91082V10.0784C7.50978 10.269 7.45721 10.4169 7.35205 10.522C7.25346 10.6206 7.10887 10.6699 6.91827 10.6699H6.79011Z" fill="#FF5555"/>
<circle cx="7.01459" cy="6.99994" r="6.48739" stroke="#FF5555" stroke-width="0.995807"/>
</svg>
