<svg width="19" height="26" viewBox="0 0 19 26" fill="none" xmlns="http://www.w3.org/2000/svg">
<path d="M9.52324 24.3368C8.02653 24.3368 6.66079 23.9906 5.426 23.2984C4.20992 22.6062 3.23706 21.6614 2.50742 20.464C1.79648 19.2667 1.44101 17.9009 1.44101 16.3668C1.44101 14.8327 1.79648 13.4669 2.50742 12.2695C3.23706 11.0722 4.20992 10.1274 5.426 9.43515C6.64208 8.74292 8.00782 8.39681 9.52324 8.39681C11.0199 8.39681 12.3763 8.74292 13.5924 9.43515C14.8085 10.1274 15.772 11.0722 16.4829 12.2695C17.2126 13.4482 17.5774 14.8139 17.5774 16.3668C17.5774 17.9009 17.2126 19.2667 16.4829 20.464C15.7533 21.6614 14.7804 22.6062 13.5644 23.2984C12.3483 23.9906 11.0012 24.3368 9.52324 24.3368ZM9.52324 20.9692C10.3464 20.9692 11.0667 20.7727 11.6841 20.3798C12.3202 19.9869 12.816 19.4444 13.1715 18.7522C13.5456 18.0412 13.7327 17.2461 13.7327 16.3668C13.7327 15.4688 13.5456 14.683 13.1715 14.0095C12.816 13.3172 12.3202 12.7747 11.6841 12.3818C11.0667 11.9702 10.3464 11.7644 9.52324 11.7644C8.68134 11.7644 7.94234 11.9702 7.30624 12.3818C6.67014 12.7747 6.165 13.3172 5.79082 14.0095C5.43536 14.683 5.25762 15.4688 5.25762 16.3668C5.25762 17.2461 5.43536 18.0412 5.79082 18.7522C6.165 19.4444 6.67014 19.9869 7.30624 20.3798C7.94234 20.7727 8.68134 20.9692 9.52324 20.9692Z" fill="#2C2C2C"/>
<rect y="15.2002" width="18.3347" height="2.24506" fill="white"/>
</svg>
