<svg width="10" height="11" viewBox="0 0 10 11" fill="none" xmlns="http://www.w3.org/2000/svg">
<path fill-rule="evenodd" clip-rule="evenodd" d="M2.92936 0.522095H1.44958C0.64832 0.522095 0 1.17604 0 1.98131V3.47394C0 4.27887 0.648458 4.93315 1.44958 4.93315H2.92936C3.73048 4.93315 4.37894 4.27887 4.37894 3.47394V1.98131C4.37894 1.17604 3.73062 0.522095 2.92936 0.522095ZM1.4498 1.202H2.92959C3.35413 1.202 3.69945 1.55032 3.69945 1.9815V3.47413C3.69945 3.90502 3.35394 4.25362 2.92959 4.25362H1.4498C1.02545 4.25362 0.679945 3.90502 0.679945 3.47413V1.9815C0.679945 1.55032 1.02527 1.202 1.4498 1.202ZM8.29362 0.52218H6.81337C6.01211 0.52218 5.36379 1.17613 5.36379 1.98139V3.47402C5.36379 4.27896 6.01225 4.93324 6.81337 4.93324H8.29362C9.09437 4.93324 9.74273 4.27886 9.74273 3.47402V1.98139C9.74273 1.17622 9.09451 0.52218 8.29362 0.52218ZM6.814 1.20209H8.29425C8.71837 1.20209 9.06364 1.55046 9.06364 1.98158V3.47421C9.06364 3.90505 8.71819 4.25371 8.29425 4.25371H6.814C6.38965 4.25371 6.04414 3.9051 6.04414 3.47421V1.98158C6.04414 1.55041 6.38946 1.20209 6.814 1.20209ZM1.4497 5.85367H2.92948C3.73083 5.85367 4.37906 6.50771 4.37906 7.31335V8.80551C4.37906 9.61078 3.73074 10.2647 2.92948 10.2647H1.4497C0.64844 10.2647 0.000120805 9.61078 0.000120805 8.80551V7.31335C0.000120805 6.50771 0.648346 5.85367 1.4497 5.85367ZM2.92971 6.53353H1.44993C1.02534 6.53353 0.680066 6.8819 0.680066 7.31349V8.80565C0.680066 9.23683 1.02539 9.58514 1.44993 9.58514H2.92971C3.35425 9.58514 3.69957 9.23683 3.69957 8.80565V7.31349C3.69957 6.8819 3.3543 6.53353 2.92971 6.53353ZM8.29362 5.85367H6.81337C6.01202 5.85367 5.36379 6.50771 5.36379 7.31335V8.80551C5.36379 9.61078 6.01211 10.2647 6.81337 10.2647H8.29362C9.09451 10.2647 9.74273 9.61068 9.74273 8.80551V7.31335C9.74273 6.50781 9.0946 5.85367 8.29362 5.85367ZM6.814 6.53353H8.29425C8.71842 6.53353 9.06364 6.88195 9.06364 7.31349V8.80565C9.06364 9.23678 8.71837 9.58514 8.29425 9.58514H6.814C6.38946 9.58514 6.04414 9.23683 6.04414 8.80565V7.31349C6.04414 6.8819 6.38941 6.53353 6.814 6.53353Z" fill="#3F3F3F"/>
</svg>
