<svg width="22" height="22" viewBox="0 0 22 22" fill="none" xmlns="http://www.w3.org/2000/svg">
<circle r="10.0482" transform="matrix(-1 0 0 1 10.5221 11.2447)" stroke="#FF5555" stroke-width="0.947699"/>
<path d="M6.94888 13.3517L9.05586 11.2457L6.95007 9.1398C6.54502 8.73591 6.54502 8.07854 6.95007 7.67464C7.35512 7.26719 8.01007 7.26838 8.41512 7.67346L10.5221 9.7794L12.6291 7.67109C13.0341 7.26601 13.6902 7.26838 14.0953 7.67109C14.4992 8.07617 14.4992 8.73354 14.0953 9.13743L11.9871 11.2457L14.0906 13.3481C14.4956 13.7532 14.4956 14.4106 14.0906 14.8133C13.888 15.017 13.6239 15.1177 13.3586 15.1177C13.0921 15.1177 12.828 15.017 12.6255 14.8145L10.5221 12.7109L8.41393 14.818C8.21141 15.0206 7.9473 15.1213 7.682 15.1213C7.41671 15.1213 7.15141 15.0194 6.94888 14.818C6.54383 14.413 6.54383 13.7568 6.94888 13.3517" fill="#FF5555"/>
</svg>
