<svg width="17" height="14" viewBox="0 0 17 14" fill="none" xmlns="http://www.w3.org/2000/svg">
<path d="M0.884766 11.6796C2.33735 12.611 4.06274 13.1543 5.91671 13.1543C11.9546 13.1543 15.2562 8.15358 15.2562 3.81641C15.2562 3.67438 15.253 3.53274 15.2469 3.3919C15.8883 2.9293 16.4447 2.35125 16.8848 1.69306C16.2961 1.95411 15.6635 2.13066 14.9994 2.21001C15.6772 1.80375 16.1977 1.16063 16.4427 0.394325C15.8084 0.770237 15.106 1.04359 14.3584 1.19058C13.7596 0.552823 12.9064 0.154297 11.9621 0.154297C10.1494 0.154297 8.67961 1.62382 8.67961 3.43614C8.67961 3.69322 8.70877 3.94376 8.76473 4.18399C6.03675 4.04712 3.6179 2.74065 1.99885 0.754962C1.71631 1.23978 1.55441 1.80335 1.55441 2.40501C1.55441 3.54345 2.13377 4.548 3.01473 5.13657C2.47643 5.11951 1.97028 4.97172 1.52782 4.72594C1.52762 4.73983 1.52762 4.75351 1.52762 4.7674C1.52762 6.35734 2.65917 7.68384 4.16076 7.98536C3.88536 8.06015 3.59528 8.10062 3.29588 8.10062C3.08437 8.10062 2.87881 8.07998 2.67822 8.0415C3.09588 9.34539 4.30838 10.2942 5.74469 10.3206C4.62127 11.2009 3.2058 11.7256 1.6679 11.7256C1.40282 11.7256 1.14151 11.7102 0.884766 11.6796Z" fill="#4B4B4B"/>
</svg>
